<svg id="Calque_1" data-name="Calque 1" xmlns="http://www.w3.org/2000/svg" viewBox="0 0 208.43 46.58"><defs><style>.cls-1{fill:#fff;}</style></defs><path class="cls-1" d="M39.47,5.2H5.86V39.59a.52.52,0,0,0,.23.46l6.76,4.81,9.49,6.78a.47.47,0,0,0,.66,0l5.67-4.06L39.27,40a.46.46,0,0,0,.22-.43C39.49,30.34,39.48,5.32,39.47,5.2ZM35.05,37.88,22.92,46.53a.34.34,0,0,1-.48,0c-.88-.64-1.77-1.27-2.66-1.9l-9.41-6.71a.61.61,0,0,1-.3-.58V9.78c0-.38,0-.37.38-.37H35.28c0,8.4,0,20,0,28A.54.54,0,0,1,35.05,37.88Z" transform="translate(-5.86 -5.2)"/><path class="cls-1" d="M32.79,11.49H12.5c-.22,0-.34,0-.34.3q0,11.27,0,22.54a.46.46,0,0,0,.21.42l3.54,2.58.46.31v-.4q0-5.16,0-10.32c0-.27.09-.34.35-.34H20.6c0,2.52,0,7,0,9h0v6.69a.46.46,0,0,0,.17.44c.61.42,1.22.85,1.82,1.29A.27.27,0,0,0,23,44c.54-.43,1.09-.85,1.62-1.28a.47.47,0,0,0,.16-.33c0-4.24,0-11.19,0-15.76h3.84c.21,0,.37,0,.37.29,0,3.3,0,6.59,0,9.89v.87l.29-.18c1.23-.89,2.46-1.79,3.7-2.67a.58.58,0,0,0,.26-.53V11.9C33.19,11.49,33.19,11.49,32.79,11.49ZM29,22.09c0,.25-.09.3-.32.3h-12c-.25,0-.34-.06-.34-.32,0-2,0-4.05,0-6.08,0-.21.06-.29.29-.29q6,0,12,0c.23,0,.32.07.31.32C29,18,29,20.07,29,22.09Z" transform="translate(-5.86 -5.2)"/><path class="cls-1" d="M65.29,36.05V30.42H57.53v5.63H55.64V23a8.41,8.41,0,0,1,11.54,0v13Zm0-12.14a6.14,6.14,0,0,0-7.76,0v4.71h7.76Z" transform="translate(-5.86 -5.2)"/><path class="cls-1" d="M75.38,36.26A6.73,6.73,0,0,1,71,34.81V26h1.78v7.85a4.33,4.33,0,0,0,2.63.76A4.15,4.15,0,0,0,78,33.82V26h1.78v8.84A6.89,6.89,0,0,1,75.38,36.26Z" transform="translate(-5.86 -5.2)"/><path class="cls-1" d="M86.93,27.54a3.17,3.17,0,0,0-2,.74v7.77H83.15V27.33a5.54,5.54,0,0,1,3.78-1.47h1.74v1.68Z" transform="translate(-5.86 -5.2)"/><path class="cls-1" d="M95.12,36.26a6.12,6.12,0,0,1-4.2-1.45v-7.5a5.84,5.84,0,0,1,4.17-1.55,6,6,0,0,1,4.2,1.55v4.43H92.62v2.17a4.24,4.24,0,0,0,2.5.67,3.74,3.74,0,0,0,2.41-.67V32.79h1.78v2A6.35,6.35,0,0,1,95.12,36.26Zm2.43-8.06a3.65,3.65,0,0,0-2.46-.76,3.7,3.7,0,0,0-2.47.76v2h4.93Zm-1.93-3.81H93.5l2.33-3.46h2.33Z" transform="translate(-5.86 -5.2)"/><path class="cls-1" d="M102.78,36.05V20.93h1.79V36.05Z" transform="translate(-5.86 -5.2)"/><path class="cls-1" d="M108.35,23.24V20.93h2v2.31Zm.1,12.81V26h1.79V36.05Z" transform="translate(-5.86 -5.2)"/><path class="cls-1" d="M117.9,36.26a6.13,6.13,0,0,1-4.2-1.45v-7.5a5.89,5.89,0,0,1,4.18-1.55,6,6,0,0,1,4.2,1.55v4.43H115.4v2.17a4.24,4.24,0,0,0,2.5.67,3.72,3.72,0,0,0,2.41-.67V32.79h1.79v2A6.36,6.36,0,0,1,117.9,36.26Zm2.44-8.06a3.67,3.67,0,0,0-2.46-.76,3.73,3.73,0,0,0-2.48.76v2h4.94Z" transform="translate(-5.86 -5.2)"/><path class="cls-1" d="M132.33,36.05V28.2a4.91,4.91,0,0,0-5.25,0v7.85h-1.79V27.19a7.06,7.06,0,0,1,4.41-1.43,6.87,6.87,0,0,1,4.41,1.43v8.86Z" transform="translate(-5.86 -5.2)"/><path class="cls-1" d="M150.49,22.72V36.05H148.6V22.72h-5.25V20.93h12.39v1.79Z" transform="translate(-5.86 -5.2)"/><path class="cls-1" d="M159.73,27.54a3.17,3.17,0,0,0-2,.74v7.77H156V27.33a5.56,5.56,0,0,1,3.78-1.47h1.74v1.68Z" transform="translate(-5.86 -5.2)"/><path class="cls-1" d="M168.24,36.26a6.05,6.05,0,0,1-4.52-1.74v-7a6.79,6.79,0,0,1,9,0v7A6.12,6.12,0,0,1,168.24,36.26Zm2.73-7.9a4.51,4.51,0,0,0-5.46,0v5.27a3.91,3.91,0,0,0,2.73.95,4,4,0,0,0,2.73-.95Z" transform="translate(-5.86 -5.2)"/><path class="cls-1" d="M180.35,36.26a6.77,6.77,0,0,1-4.41-1.45V26h1.79v7.85a4.32,4.32,0,0,0,2.62.76,4.16,4.16,0,0,0,2.63-.76V26h1.78v8.84A6.9,6.9,0,0,1,180.35,36.26Z" transform="translate(-5.86 -5.2)"/><path class="cls-1" d="M192.64,36.26a6.23,6.23,0,0,1-4.52-1.72V20.93h1.79v5.5a6.13,6.13,0,0,1,2.83-.67,6,6,0,0,1,4.41,1.72v7.06A6.2,6.2,0,0,1,192.64,36.26Zm2.73-7.9a3.93,3.93,0,0,0-2.73-.92,4.2,4.2,0,0,0-2.73.84v5.35a4.4,4.4,0,0,0,5.46,0Z" transform="translate(-5.86 -5.2)"/><path class="cls-1" d="M200.64,36.05V20.93h1.78V36.05Z" transform="translate(-5.86 -5.2)"/><path class="cls-1" d="M210.09,36.26a6.13,6.13,0,0,1-4.2-1.45v-7.5a5.89,5.89,0,0,1,4.18-1.55,6,6,0,0,1,4.2,1.55v4.43h-6.68v2.17a4.24,4.24,0,0,0,2.5.67,3.72,3.72,0,0,0,2.41-.67V32.79h1.79v2A6.38,6.38,0,0,1,210.09,36.26Zm2.43-8.06a3.62,3.62,0,0,0-2.45-.76,3.73,3.73,0,0,0-2.48.76v2h4.93Zm-1.93-3.81h-2.12l2.33-3.46h2.33Z" transform="translate(-5.86 -5.2)"/></svg>