<svg xmlns="http://www.w3.org/2000/svg" viewBox="0 0 210.81 39.72"><defs><style>.cls-1,.cls-2{fill:#fff;}.cls-2{opacity:0.5;}</style></defs><g id="Calque_1" data-name="Calque 1"><path class="cls-1" d="M30.68,44.74c-7.75,0-15.19-.57-22.15-3.83a10.9,10.9,0,0,1-3.88-2.84,4,4,0,0,1,0-5.56,11.29,11.29,0,0,1,3.83-2.8,38,38,0,0,1,12.54-3.33c.74-.09.8-.34.85-1,.25-3.11,3.44-2.9,5-3.16.24,0,.34.13.33.36s0,6.93,0,15.61c0,.71-.14,1-.91,1a4.13,4.13,0,0,1-4.44-4.46q0-3.13,0-6.28c0-.35,0-.59-.48-.52a31.11,31.11,0,0,0-9.91,2.78,8.25,8.25,0,0,0-2.35,1.71,2.82,2.82,0,0,0,.05,4.29,12.12,12.12,0,0,0,5,2.8,44.13,44.13,0,0,0,13,2.1,1.2,1.2,0,0,1,1.22.72,5.7,5.7,0,0,0,.93,1.26C29.73,43.92,30.14,44.24,30.68,44.74Z" transform="translate(-3.53 -5.02)"/><path class="cls-1" d="M40.07,26.88c-.68.73-.64,1.26-3.07.9a17.84,17.84,0,0,0-2.27-.25c-.39,0-.54.06-.54.49,0,2.73,0,5.47,0,8.2a8.26,8.26,0,0,0,.08,1,3.51,3.51,0,0,0,3.75,3.48,4.78,4.78,0,0,0,.85,0,2.49,2.49,0,0,1,2.93,1.11c.23.27.5.5.74.77s.37.33.34.49-.32.16-.5.2a25,25,0,0,1-7.83.84c-3.07-.32-4.72-1.85-5.42-4.84a12.87,12.87,0,0,1-.3-2.9q0-15.29,0-30.58c0-.62.21-.74.77-.74,2.91,0,4.58,1.6,4.59,4.51q0,7.92,0,15.83c0,.63.19.79.79.83A37.71,37.71,0,0,1,40.07,26.88Z" transform="translate(-3.53 -5.02)"/><path class="cls-2" d="M41.31,28.43A3.35,3.35,0,0,1,44.86,28a26.91,26.91,0,0,1,6.38,2.92,7.47,7.47,0,0,1,2.46,2.6,3.74,3.74,0,0,1-.44,4.33c-1.52,2-3.75,2.87-5.9,4a2.77,2.77,0,0,1-4-.94c-.64-.86-.74-.79.3-1.14a17.55,17.55,0,0,0,4.68-2.19A6.17,6.17,0,0,0,49.88,36,3,3,0,0,0,49.06,32a13.87,13.87,0,0,0-4.83-2.52c-.75-.26-1.53-.46-2.31-.66A.9.9,0,0,1,41.31,28.43Z" transform="translate(-3.53 -5.02)"/></g><g id="Calque_2" data-name="Calque 2"><path class="cls-1" d="M75.62,27.47,79,40.05c0,.26,0,.32-.24.32H77.24c-.16,0-.2-.06-.26-.32l-1.24-4.42h-6l-1.26,4.42c-.06.26-.08.32-.26.32H66.64c-.24,0-.28-.06-.24-.32l3.54-12.58c.58-2.06.92-2.34,2.78-2.34C74.78,25.13,75.06,25.41,75.62,27.47ZM71.86,28l-1.64,5.92h5.06L73.72,28c-.26-.92-.3-1.06-1-1.06S72.1,27,71.86,28Z" transform="translate(-3.53 -5.02)"/><path class="cls-1" d="M89.64,29.43a.27.27,0,0,1,.3.3V39.85c0,.24-.1.26-.3.3a22.93,22.93,0,0,1-4.16.32c-3.58,0-4.64-.46-4.64-4.7v-6c0-.2.14-.3.34-.3h1.28a.27.27,0,0,1,.3.3v5.9c0,3,.6,3.16,2.52,3.16H88V29.73a.27.27,0,0,1,.3-.3Z" transform="translate(-3.53 -5.02)"/><path class="cls-1" d="M98.06,29.55c.2.06.3.14.3.34v.84A.26.26,0,0,1,98,31H96.3c-1.38,0-1.74.22-1.74,1.12v7.94a.27.27,0,0,1-.3.3H93a.27.27,0,0,1-.3-.3v-8.4c0-2.26,2-2.34,3.16-2.34A11.5,11.5,0,0,1,98.06,29.55Z" transform="translate(-3.53 -5.02)"/><path class="cls-1" d="M108.7,34.61v.58c0,.4-.1.56-.72.56h-6.36c.06,2.44.52,3,2.66,3h3.28a.27.27,0,0,1,.3.3V40a.3.3,0,0,1-.28.32,24.75,24.75,0,0,1-3.34.18c-3.76,0-4.56-1.1-4.56-5.56s.8-5.58,4.56-5.58C107.82,29.33,108.66,30.39,108.7,34.61Zm-7.1-.42h5.18c0-2.54-.46-3.18-2.54-3.18S101.64,31.65,101.6,34.19Zm4.94-9a.18.18,0,0,1,.2.2v.14a.33.33,0,0,1-.1.24l-2.84,2.5a.19.19,0,0,1-.28,0l-.4-.26a.2.2,0,0,1-.06-.28l1.46-2.42a.24.24,0,0,1,.24-.12Z" transform="translate(-3.53 -5.02)"/><path class="cls-1" d="M112.52,25.23a.27.27,0,0,1,.3.3V40.07a.27.27,0,0,1-.3.3H111.2a.27.27,0,0,1-.3-.3V25.53a.27.27,0,0,1,.3-.3Z" transform="translate(-3.53 -5.02)"/><path class="cls-1" d="M117.72,26.23a1.18,1.18,0,1,1-1.18-1.16A1,1,0,0,1,117.72,26.23Zm-.52,3.2a.27.27,0,0,1,.3.3V40.07a.27.27,0,0,1-.3.3h-1.32a.27.27,0,0,1-.3-.3V29.73a.27.27,0,0,1,.3-.3Z" transform="translate(-3.53 -5.02)"/><path class="cls-1" d="M128.94,34.61v.58c0,.4-.1.56-.72.56h-6.36c.06,2.44.52,3,2.66,3h3.28a.27.27,0,0,1,.3.3V40a.3.3,0,0,1-.28.32,24.75,24.75,0,0,1-3.34.18c-3.77,0-4.57-1.1-4.57-5.56s.8-5.58,4.57-5.58C128.06,29.33,128.9,30.39,128.94,34.61Zm-7.1-.42H127c0-2.54-.46-3.18-2.54-3.18S121.88,31.65,121.84,34.19Z" transform="translate(-3.53 -5.02)"/><path class="cls-1" d="M140.22,34v6.06c0,.2-.14.3-.34.3H138.6a.27.27,0,0,1-.3-.3v-5.9c0-3.06-.6-3.16-2.52-3.16H133v9.06a.27.27,0,0,1-.3.3h-1.33a.27.27,0,0,1-.3-.3V30c0-.26.1-.28.3-.32a22.85,22.85,0,0,1,4.17-.32C139.16,29.33,140.22,29.77,140.22,34Z" transform="translate(-3.53 -5.02)"/><path class="cls-1" d="M157.2,25.23a.27.27,0,0,1,.3.3v1.18a.27.27,0,0,1-.3.3h-4.54V40.07a.27.27,0,0,1-.3.3h-1.42a.27.27,0,0,1-.3-.3V27h-4.55c-.2,0-.29-.1-.29-.3V25.53c0-.2.09-.3.29-.3Z" transform="translate(-3.53 -5.02)"/><path class="cls-1" d="M164.52,29.55c.2.06.3.14.3.34v.84a.26.26,0,0,1-.32.28h-1.74c-1.38,0-1.74.22-1.74,1.12v7.94c0,.2-.1.3-.31.3h-1.3a.27.27,0,0,1-.3-.3v-8.4c0-2.26,2-2.34,3.17-2.34A11.5,11.5,0,0,1,164.52,29.55Z" transform="translate(-3.53 -5.02)"/><path class="cls-1" d="M175.22,34.91c0,4.46-.78,5.56-4.64,5.56s-4.66-1.1-4.66-5.56.8-5.58,4.66-5.58S175.22,30.45,175.22,34.91Zm-7.38,0c0,3.1.3,3.88,2.74,3.88s2.72-.78,2.72-3.88S173,31,170.58,31,167.84,31.79,167.84,34.91Z" transform="translate(-3.53 -5.02)"/><path class="cls-1" d="M186.36,29.43a.27.27,0,0,1,.3.3V39.85c0,.24-.1.26-.3.3a22.93,22.93,0,0,1-4.16.32c-3.59,0-4.65-.46-4.65-4.7v-6c0-.2.14-.3.34-.3h1.28c.21,0,.31.1.31.3v5.9c0,3,.6,3.16,2.52,3.16h2.74V29.73a.27.27,0,0,1,.3-.3Z" transform="translate(-3.53 -5.02)"/><path class="cls-1" d="M191,25.25a.27.27,0,0,1,.3.3v3.92a21.62,21.62,0,0,1,2.66-.14c3.78,0,4.56,1.16,4.56,5.6s-.78,5.54-4.66,5.54a22.51,22.51,0,0,1-4.16-.34c-.21,0-.33-.1-.33-.32V25.55a.27.27,0,0,1,.31-.3Zm.3,5.76v7.62a22.61,22.61,0,0,0,2.58.16c2.46,0,2.74-.82,2.74-3.88s-.3-3.9-2.76-3.9Z" transform="translate(-3.53 -5.02)"/><path class="cls-1" d="M202.6,25.23a.27.27,0,0,1,.3.3V40.07a.27.27,0,0,1-.3.3h-1.32c-.21,0-.31-.1-.31-.3V25.53c0-.2.1-.3.31-.3Z" transform="translate(-3.53 -5.02)"/><path class="cls-1" d="M214.34,34.61v.58c0,.4-.1.56-.72.56h-6.37c.07,2.44.53,3,2.67,3h3.28a.27.27,0,0,1,.3.3V40a.3.3,0,0,1-.28.32,24.75,24.75,0,0,1-3.34.18c-3.77,0-4.57-1.1-4.57-5.56s.8-5.58,4.57-5.58C213.46,29.33,214.3,30.39,214.34,34.61Zm-7.1-.42h5.18c0-2.54-.46-3.18-2.54-3.18S207.28,31.65,207.24,34.19Zm4.94-9a.18.18,0,0,1,.2.2v.14a.33.33,0,0,1-.1.24l-2.84,2.5a.21.21,0,0,1-.29,0l-.39-.26a.2.2,0,0,1-.07-.28l1.46-2.42a.26.26,0,0,1,.25-.12Z" transform="translate(-3.53 -5.02)"/></g></svg>