<svg id="Calque_1" data-name="Calque 1" xmlns="http://www.w3.org/2000/svg" viewBox="0 0 213.4 39.72"><defs><style>.cls-1,.cls-2{fill:#fff;}.cls-2{opacity:0.5;}</style></defs><path class="cls-1" d="M30.68,44.74c-7.75,0-15.19-.57-22.15-3.83a10.9,10.9,0,0,1-3.88-2.84,4,4,0,0,1,0-5.56,11.29,11.29,0,0,1,3.83-2.8,38,38,0,0,1,12.54-3.33c.74-.09.8-.34.85-1,.25-3.11,3.44-2.9,5-3.16.24,0,.34.13.33.36s0,6.93,0,15.61c0,.71-.14,1-.91,1a4.13,4.13,0,0,1-4.44-4.46q0-3.13,0-6.28c0-.35,0-.59-.48-.52a31.11,31.11,0,0,0-9.91,2.78,8.25,8.25,0,0,0-2.35,1.71,2.82,2.82,0,0,0,.05,4.29,12.12,12.12,0,0,0,5,2.8,44.13,44.13,0,0,0,13,2.1,1.2,1.2,0,0,1,1.22.72,5.7,5.7,0,0,0,.93,1.26C29.73,43.92,30.14,44.24,30.68,44.74Z" transform="translate(-3.53 -5.02)"/><path class="cls-1" d="M40.07,26.88c-.68.73-.64,1.26-3.07.9a17.84,17.84,0,0,0-2.27-.25c-.39,0-.54.06-.54.49,0,2.73,0,5.47,0,8.2a8.26,8.26,0,0,0,.08,1,3.51,3.51,0,0,0,3.75,3.48,4.78,4.78,0,0,0,.85,0,2.49,2.49,0,0,1,2.93,1.11c.23.27.5.5.74.77s.37.33.34.49-.32.16-.5.2a25,25,0,0,1-7.83.84c-3.07-.32-4.72-1.85-5.42-4.84a12.87,12.87,0,0,1-.3-2.9q0-15.29,0-30.58c0-.62.21-.74.77-.74,2.91,0,4.58,1.6,4.59,4.51q0,7.92,0,15.83c0,.63.19.79.79.83A37.71,37.71,0,0,1,40.07,26.88Z" transform="translate(-3.53 -5.02)"/><path class="cls-2" d="M41.31,28.43A3.35,3.35,0,0,1,44.86,28a26.91,26.91,0,0,1,6.38,2.92,7.47,7.47,0,0,1,2.46,2.6,3.74,3.74,0,0,1-.44,4.33c-1.52,2-3.75,2.87-5.9,4a2.77,2.77,0,0,1-4-.94c-.64-.86-.74-.79.3-1.14a17.55,17.55,0,0,0,4.68-2.19A6.17,6.17,0,0,0,49.88,36,3,3,0,0,0,49.06,32a13.87,13.87,0,0,0-4.83-2.52c-.75-.26-1.53-.46-2.31-.66A.9.9,0,0,1,41.31,28.43Z" transform="translate(-3.53 -5.02)"/><path class="cls-1" d="M63.64,27.61a2.1,2.1,0,0,1,.74-1.13,2,2,0,0,1,1.16-.35H70a1.94,1.94,0,0,1,1.15.35,2.17,2.17,0,0,1,.75,1.13l3.83,11.82h-1.9l-1.35-4.16h-7.9l.49-1.71H72l-1.8-5.72H65.37L61.7,39.43H59.8Z" transform="translate(-3.53 -5.02)"/><path class="cls-1" d="M75.53,30.12h1.75v7.66h7.64V30.12h1.75V38a1.38,1.38,0,0,1-.4,1,1.35,1.35,0,0,1-1,.41H76.92a1.35,1.35,0,0,1-1-.41,1.38,1.38,0,0,1-.4-1Z" transform="translate(-3.53 -5.02)"/><path class="cls-1" d="M87.43,31.51a1.28,1.28,0,0,1,.41-1,1.31,1.31,0,0,1,1-.4h6.37v1.65h-6v7.66H87.43Z" transform="translate(-3.53 -5.02)"/><path class="cls-1" d="M95.46,31.51a1.32,1.32,0,0,1,.41-1,1.35,1.35,0,0,1,1-.4h8.63a1.35,1.35,0,0,1,1,.4,1.31,1.31,0,0,1,.4,1v3a1.34,1.34,0,0,1-.4,1,1.39,1.39,0,0,1-1,.4H97.21v2h9.48v1.56H96.85a1.35,1.35,0,0,1-1-.4,1.34,1.34,0,0,1-.41-1Zm9.66,2.85V31.64H97.21v2.72Zm-3.18-8.1h1.9l-2.12,2.83h-1.41Z" transform="translate(-3.53 -5.02)"/><path class="cls-1" d="M107.62,26.13h1.75v13.3h-1.75Z" transform="translate(-3.53 -5.02)"/><path class="cls-1" d="M112.07,31.77h-2V30.12h2.37a1.34,1.34,0,0,1,1,.4,1.32,1.32,0,0,1,.41,1v7.92h-1.75Zm-.19-5.07h1.75v1.9h-1.75Z" transform="translate(-3.53 -5.02)"/><path class="cls-1" d="M114.71,31.51a1.32,1.32,0,0,1,.41-1,1.34,1.34,0,0,1,1-.4h8.62a1.34,1.34,0,0,1,1,.4,1.32,1.32,0,0,1,.41,1v3a1.35,1.35,0,0,1-.41,1,1.38,1.38,0,0,1-1,.4h-8.26v2h9.48v1.56H116.1A1.38,1.38,0,0,1,114.71,38Zm9.65,2.85V31.64h-7.9v2.72Z" transform="translate(-3.53 -5.02)"/><path class="cls-1" d="M126.68,31.51a1.38,1.38,0,0,1,1.39-1.39h8.41a1.32,1.32,0,0,1,1,.41,1.34,1.34,0,0,1,.4,1v7.92h-1.75V31.77h-7.69v7.66h-1.75Z" transform="translate(-3.53 -5.02)"/><path class="cls-1" d="M151.55,27.84h-7.12V26.13h16v1.71h-7.08V39.43h-1.81Z" transform="translate(-3.53 -5.02)"/><path class="cls-1" d="M157.67,31.51a1.32,1.32,0,0,1,.41-1,1.34,1.34,0,0,1,1-.4h6.36v1.65h-6v7.66h-1.75Z" transform="translate(-3.53 -5.02)"/><path class="cls-1" d="M165.71,31.51a1.31,1.31,0,0,1,.4-1,1.35,1.35,0,0,1,1-.4h8.42a1.34,1.34,0,0,1,1,.4,1.32,1.32,0,0,1,.41,1V38a1.38,1.38,0,0,1-1.39,1.39h-8.42a1.35,1.35,0,0,1-1-.4,1.33,1.33,0,0,1-.4-1Zm9.44,6.27v-6h-7.7v6Z" transform="translate(-3.53 -5.02)"/><path class="cls-1" d="M177.66,30.12h1.75v7.66H187V30.12h1.75V38a1.34,1.34,0,0,1-.4,1,1.32,1.32,0,0,1-1,.41H179a1.31,1.31,0,0,1-1-.41,1.34,1.34,0,0,1-.4-1Z" transform="translate(-3.53 -5.02)"/><path class="cls-1" d="M189.74,26.13h1.75V37.76h8.26v-6h-6.82V30.12h7.18a1.34,1.34,0,0,1,1,.4,1.28,1.28,0,0,1,.41,1V38a1.3,1.3,0,0,1-.41,1,1.34,1.34,0,0,1-1,.4h-9A1.38,1.38,0,0,1,189.74,38Z" transform="translate(-3.53 -5.02)"/><path class="cls-1" d="M202.64,26.13h1.75v13.3h-1.75Z" transform="translate(-3.53 -5.02)"/><path class="cls-1" d="M205.53,31.51a1.32,1.32,0,0,1,.41-1,1.34,1.34,0,0,1,1-.4h8.62a1.34,1.34,0,0,1,1,.4,1.32,1.32,0,0,1,.41,1v3a1.35,1.35,0,0,1-.41,1,1.38,1.38,0,0,1-1,.4h-8.26v2h9.48v1.56h-9.84A1.38,1.38,0,0,1,205.53,38Zm9.65,2.85V31.64h-7.9v2.72ZM212,26.26h1.9l-2.13,2.83h-1.41Z" transform="translate(-3.53 -5.02)"/></svg>