<svg id="Calque_1" data-name="Calque 1" xmlns="http://www.w3.org/2000/svg" viewBox="0 0 384.87 301.69"><defs><style>.cls-1{fill:#1c658c;}.cls-2{fill:#d8d2cb;}</style></defs><path class="cls-1" d="M218.8,352.84c-58.87-.13-115.34-4.27-168.21-29-11.19-5.24-21.51-11.93-29.5-21.59C9.64,288.35,9.74,273.71,21.3,260c8-9.44,18.17-15.88,29.1-21.24,30.07-14.74,62.35-21.48,95.3-25.34,5.57-.65,6.06-2.58,6.45-7.6,1.85-23.6,26.09-22,37.91-24,1.8-.31,2.53,1,2.48,2.73,0,1.45,0,52.68.14,118.58,0,5.43-1.07,7.3-6.93,7.21-20.95-.33-33.68-12.81-33.69-33.86,0-15.89,0-31.78,0-47.67,0-2.68,0-4.52-3.65-4-26,3.74-51.57,9.06-75.23,21.13a63,63,0,0,0-17.88,13c-9.86,10.61-9.77,22.27.41,32.62,10.56,10.74,24,16.51,37.9,21.26,32.1,11,65.38,14.92,99.07,16,4.54.14,7.19,1.34,9.24,5.47a43.65,43.65,0,0,0,7,9.55C211.59,346.66,214.69,349.09,218.8,352.84Z" transform="translate(-12.57 -51.16)"/><path class="cls-1" d="M290.17,217.23c-5.16,5.56-4.92,9.55-23.35,6.82a132.57,132.57,0,0,0-17.2-1.87c-3-.37-4.18.45-4.15,3.7.16,20.75.13,41.51.22,62.27a63.77,63.77,0,0,0,.66,7.54c2.08,17.25,11.11,25.63,28.47,26.39a36.65,36.65,0,0,0,6.47-.14c12.49-1.77,15.28.41,22.21,8.47,1.74,2,3.84,3.8,5.66,5.8,1,1.13,2.79,2.56,2.54,3.74-.24.9-2.45,1.25-3.8,1.54-19.6,4.19-39.22,8.53-59.48,6.39-23.33-2.47-35.84-14.05-41.13-36.79a97.16,97.16,0,0,1-2.29-22q0-116.15-.13-232.29c0-4.68,1.58-5.6,5.83-5.61,22.08-.08,34.79,12.15,34.84,34.26q.14,60.1-.12,120.21c0,4.8,1.46,6,6,6.32A294.58,294.58,0,0,1,290.17,217.23Z" transform="translate(-12.57 -51.16)"/><path class="cls-2" d="M299.53,229c8.31-6.66,16.75-7.09,27-3.39,16.83,6,33.6,11.9,48.44,22.13,7.61,5.26,14.28,11.49,18.68,19.81,6.19,11.69,4.48,22.71-3.34,32.85-11.55,15-28.51,21.82-44.8,30-13,6.54-22,4.33-30.51-7.11-4.85-6.55-5.63-6,2.34-8.69,12.48-4.17,24.67-8.93,35.53-16.6a46.48,46.48,0,0,0,11.74-11.79c6.28-9.21,3.77-21-6.21-29.89-10.61-9.42-23.51-14.54-36.65-19.08-5.76-2-11.68-3.55-17.59-5.07A6.86,6.86,0,0,1,299.53,229Z" transform="translate(-12.57 -51.16)"/></svg>